<svg xmlns="http://www.w3.org/2000/svg" width="173" height="35" viewBox="0 0 173 35" fill="none"><path fill-rule="evenodd" clip-rule="evenodd" d="M73.3258 6.34447C76.2246 6.34447 78.4176 7.20943 79.9049 8.93935C81.3921 10.6693 82.1346 13.0719 82.1322 16.1474C82.1322 16.6249 82.1213 16.9817 82.0979 17.2286H67.3215C67.581 18.9225 68.2825 20.2704 69.4262 21.2723C70.5699 22.2742 71.9791 22.7751 73.6537 22.7751C74.7157 22.784 75.7684 22.5767 76.7478 22.1661C77.6879 21.7704 78.5368 21.1859 79.2417 20.4488L81.0437 22.3445C80.1175 23.352 78.983 24.1459 77.719 24.6708C76.348 25.2352 74.8767 25.5154 73.3942 25.4944C71.555 25.4944 69.9224 25.0949 68.4964 24.296C67.0852 23.5128 65.9306 22.3381 65.1717 20.9137C64.3624 19.3827 63.9545 17.6716 63.986 15.9401C63.986 14.0781 64.3812 12.4262 65.1717 10.9846C65.9369 9.56622 67.0819 8.38882 68.4784 7.58425C69.9534 6.74516 71.6272 6.31877 73.324 6.34987L73.3258 6.34447ZM79.1625 14.6463C79.0675 12.9284 78.5011 11.5745 77.4632 10.5846C76.4252 9.59468 75.0581 9.09973 73.3618 9.09973C71.7112 9.09973 70.3374 9.60069 69.2406 10.6026C68.1438 11.6045 67.4891 12.9524 67.2764 14.6463H79.1625ZM83.4422 6.45259H87.2625L91.8954 13.3939L96.6004 6.45259H100.242L94.0884 15.6843L100.702 25.3808H96.8419L91.8954 17.9458L86.6966 25.388H82.9809L89.7024 15.6915L83.4422 6.45979V6.45259ZM115.064 6.34447C116.7 6.31745 118.313 6.73805 119.727 7.56082C121.091 8.36766 122.195 9.5475 122.91 10.9612C123.671 12.416 124.052 14.0835 124.052 15.9636C124.052 17.8232 123.681 19.4751 122.939 20.9191C122.235 22.3201 121.142 23.4883 119.79 24.2834C118.377 25.0971 116.77 25.5113 115.139 25.4818C113.685 25.5129 112.248 25.1678 110.966 24.4798C109.767 23.8165 108.785 22.8226 108.135 21.6165V34.2575H104.841V6.45259H108.13V10.2098C108.776 9.00739 109.752 8.01414 110.943 7.34638C112.206 6.66005 113.626 6.31474 115.064 6.34447ZM114.426 22.5895C115.565 22.6081 116.688 22.3113 117.669 21.7318C118.625 21.1597 119.398 20.3279 119.899 19.3333C120.441 18.2578 120.714 17.0669 120.695 15.8627C120.711 14.6681 120.432 13.4881 119.881 12.428C119.373 11.4262 118.592 10.5887 117.628 10.0125C116.663 9.43619 115.556 9.14473 114.433 9.17181C113.293 9.15339 112.171 9.45023 111.189 10.0296C110.233 10.6049 109.455 11.4355 108.944 12.428C108.408 13.5033 108.13 14.6883 108.13 15.8897C108.13 17.091 108.408 18.276 108.944 19.3513C109.459 20.3359 110.236 21.1591 111.189 21.73C112.171 22.3093 113.293 22.6062 114.433 22.5877L114.426 22.5895ZM136.144 6.34447C139.045 6.34447 141.238 7.20943 142.723 8.93935C144.208 10.6693 144.952 13.0707 144.955 16.1438C144.955 16.6213 144.943 16.9781 144.919 17.225H130.143C130.402 18.9189 131.104 20.2668 132.248 21.2687C133.391 22.2706 134.801 22.7715 136.475 22.7715C137.531 22.7771 138.576 22.5693 139.549 22.1607C140.49 21.7654 141.339 21.1809 142.043 20.4433L143.845 22.3391C142.919 23.3466 141.785 24.1405 140.521 24.6654C139.153 25.2286 137.686 25.5087 136.207 25.489C134.366 25.489 132.733 25.0895 131.307 24.2906C129.896 23.5074 128.741 22.3327 127.982 20.9083C127.173 19.3773 126.765 17.6661 126.797 15.9347C126.797 14.0727 127.192 12.4208 127.982 10.9792C128.748 9.56082 129.893 8.38342 131.289 7.57884C132.764 6.74 134.438 6.31363 136.135 6.34447H136.144ZM141.98 14.6463C141.887 12.9284 141.321 11.5745 140.283 10.5846C139.245 9.59468 137.877 9.09973 136.18 9.09973C134.529 9.09973 133.155 9.60069 132.058 10.6026C130.962 11.6045 130.308 12.9524 130.096 14.6463H141.98ZM152.733 10.5305C153.272 9.25757 154.185 8.17851 155.351 7.43648C156.483 6.7313 157.827 6.36729 159.382 6.34447V9.56465C157.472 9.49377 155.928 9.99473 154.749 11.0675C153.571 12.1403 152.899 13.5819 152.733 15.3923V25.3754H149.444V6.45439H152.733V10.5323V10.5305ZM173 24.1284C171.558 25.0595 170.096 25.525 168.614 25.525C167.131 25.525 165.93 25.0775 165.01 24.1825C164.091 23.2887 163.631 21.9348 163.631 20.1208V9.63673H160.975V7.0959H163.628V2.01425H166.952V7.0959H172.683V9.63673H166.952V19.5135C166.952 20.5623 167.141 21.3137 167.518 21.7678C167.896 22.2219 168.461 22.4484 169.216 22.4472C170.111 22.4472 171.077 22.1468 172.115 21.5462L173 24.1284Z" fill="#00A984"></path><path fill-rule="evenodd" clip-rule="evenodd" d="M52.7234 17.2141L61.4541 25.3826L58.0988 25.3808L49.2618 17.2141H52.7234Z" fill="#00A984"></path><path fill-rule="evenodd" clip-rule="evenodd" d="M49.8889 24.6582C47.8881 24.6754 45.9184 24.1625 44.1802 23.1716C42.4678 22.2062 41.0442 20.8011 40.0564 19.1016C39.0687 17.402 38.5526 15.4695 38.5615 13.5038C38.5432 11.5387 39.0649 9.6064 40.0698 7.91759C41.0559 6.24442 42.4688 4.86324 44.1639 3.91534C45.9168 2.95525 47.8831 2.452 49.8817 2.452C51.8802 2.452 53.8466 2.95525 55.5995 3.91534C57.3015 4.8596 58.7205 6.24129 59.7098 7.91759C60.7147 9.6064 61.2364 11.5387 61.2181 13.5038C61.2306 15.1285 60.8778 16.7353 60.1856 18.2052C58.3367 22.1138 54.1759 24.651 49.8889 24.651V24.6582ZM41.5474 13.511C41.5353 14.9998 41.929 16.4638 42.6863 17.7457C43.4278 19.0127 44.4827 20.0676 45.7497 20.8091C47.0099 21.5614 48.4519 21.9546 49.9195 21.9462C51.3797 21.9582 52.8145 21.5646 54.0641 20.8091C55.3152 20.0628 56.3538 19.0081 57.0807 17.7457C57.8295 16.4609 58.2179 14.998 58.2052 13.511C58.2177 12.0298 57.8278 10.573 57.0771 9.29612C56.3495 8.04133 55.3105 6.9955 54.0605 6.25975C52.8075 5.51414 51.374 5.12646 49.9159 5.1389C48.4504 5.13014 47.0097 5.51739 45.7461 6.25975C44.48 6.99054 43.4247 8.03658 42.6827 9.29612C41.9261 10.5709 41.5335 12.0287 41.5474 13.511Z" fill="#00A984"></path><path fill-rule="evenodd" clip-rule="evenodd" d="M14.3227 5.82908L14.2308 0.536598C14.2298 0.464689 14.2145 0.393703 14.1857 0.327796C14.1569 0.261888 14.1153 0.202386 14.0633 0.152771L14.0362 0.127543C13.9768 0.0773575 13.9072 0.0405899 13.8323 0.0197534C13.7573 -0.00108321 13.6788 -0.00549892 13.6019 0.00680805C10.1216 0.536869 6.91508 2.20541 4.4838 4.75149C2.36625 6.95472 0.920783 9.71605 0.316907 12.7116C-0.286969 15.7072 -0.0242199 18.8129 1.07434 21.6645C2.1729 24.5161 4.06173 26.9953 6.51933 28.8115C8.97693 30.6276 11.9014 31.7054 14.9498 31.9185C15.0648 32.1723 15.2623 32.3797 15.5101 32.507C15.758 32.6343 16.0416 32.674 16.3148 32.6197C16.5881 32.5654 16.835 32.4202 17.0152 32.2078C17.1955 31.9953 17.2987 31.7282 17.3079 31.4497C17.317 31.1713 17.2318 30.8979 17.0659 30.674C16.9 30.4502 16.6632 30.2891 16.3941 30.2168C16.1251 30.1446 15.8394 30.1655 15.5838 30.2762C15.3281 30.3869 15.1174 30.5808 14.9859 30.8265C11.3657 30.5692 7.96207 29.0063 5.40745 26.4284C2.85284 23.8505 1.32099 20.4328 1.09657 16.8104C0.872157 13.1881 1.97044 9.6074 4.18732 6.73386C6.4042 3.86032 9.58891 1.88932 13.1496 1.18712L13.2235 5.40741C11.3266 5.92066 9.60576 6.94184 8.24638 8.3609L9.03206 9.11774C10.3491 7.7431 12.0409 6.78564 13.8975 6.36428C14.0192 6.33772 14.1279 6.26995 14.2054 6.17243C14.2829 6.07491 14.3244 5.95363 14.3227 5.82908Z" fill="#00A984"></path><path fill-rule="evenodd" clip-rule="evenodd" d="M27.2071 4.30097C24.8769 2.05409 21.92 0.566842 18.7268 0.0356282C18.6479 0.0224101 18.5671 0.0268689 18.4901 0.0486821C18.4131 0.0704953 18.342 0.109119 18.2817 0.161768C18.2226 0.21455 18.1759 0.279682 18.1447 0.35255C18.1136 0.425418 18.0988 0.504241 18.1015 0.583438L18.1934 5.93719C18.1944 6.05628 18.2347 6.1717 18.308 6.26555C18.3813 6.35939 18.4836 6.4264 18.5989 6.45617C20.2196 6.8896 21.7012 7.73341 22.9008 8.90618C24.1004 10.0789 24.9775 11.5411 25.4475 13.1516C25.9175 14.762 25.9645 16.4664 25.584 18.1003C25.2034 19.7342 24.4082 21.2425 23.2751 22.4796C23.0133 22.3872 22.728 22.3861 22.4654 22.4764C22.2029 22.5667 21.9786 22.743 21.829 22.9769C21.6794 23.2107 21.6132 23.4883 21.6412 23.7645C21.6692 24.0407 21.7898 24.2993 21.9833 24.4983C22.1768 24.6973 22.432 24.8251 22.7073 24.8608C22.9826 24.8965 23.2619 24.8381 23.4998 24.6951C23.7377 24.5521 23.9203 24.3328 24.0179 24.0729C24.1155 23.813 24.1223 23.5277 24.0373 23.2635C25.2863 21.9167 26.173 20.275 26.6143 18.4921C27.0556 16.7092 27.0372 14.8434 26.5608 13.0695C26.0843 11.2957 25.1654 9.67178 23.8901 8.34995C22.6148 7.02813 21.0249 6.05163 19.2692 5.51192L19.1954 1.23216C22.2131 1.87839 24.9578 3.4406 27.0543 5.70535C29.1508 7.9701 30.497 10.8269 30.9089 13.8855C31.3208 16.9441 30.7782 20.0552 29.3555 22.7939C27.9327 25.5326 25.6991 27.7652 22.9597 29.1866L12.7298 19.3549C12.0499 18.702 11.5768 17.8637 11.3692 16.9441C11.1617 16.0246 11.2288 15.0644 11.5623 14.1827C11.8958 13.301 12.4809 12.5366 13.245 11.9846C14.0092 11.4326 14.9186 11.1172 15.8604 11.0776C16.8023 11.0381 17.735 11.276 18.5427 11.7619C19.3505 12.2479 19.9977 12.9604 20.404 13.811C20.8103 14.6616 20.9578 15.6128 20.8281 16.5465C20.6985 17.4802 20.2974 18.3553 19.6747 19.063C19.4161 18.9611 19.1307 18.9497 18.8648 19.0304C18.5989 19.1112 18.3681 19.2794 18.2098 19.5079C18.0515 19.7363 17.9751 20.0115 17.9929 20.2889C18.0108 20.5662 18.1218 20.8294 18.308 21.0357C18.4942 21.242 18.7447 21.3793 19.0188 21.4253C19.2928 21.4714 19.5744 21.4235 19.8178 21.2893C20.0612 21.1552 20.2522 20.9428 20.3596 20.6865C20.4671 20.4302 20.4848 20.1451 20.4099 19.8775C21.1953 19.0218 21.7106 17.9534 21.8915 16.8061C22.0724 15.6588 21.9107 14.4836 21.4267 13.4278C20.9428 12.372 20.158 11.4825 19.1707 10.8707C18.1835 10.2588 17.0377 9.95192 15.8768 9.98837C14.7159 10.0248 13.5916 10.403 12.6446 11.0756C11.6977 11.7481 10.9703 12.6851 10.5535 13.7692C10.1367 14.8533 10.049 16.0363 10.3015 17.17C10.554 18.3037 11.1354 19.3376 11.9729 20.1424L22.4822 30.2426C22.5623 30.3205 22.6645 30.3717 22.7749 30.3892C22.8853 30.4066 22.9983 30.3894 23.0985 30.3399C25.4242 29.2058 27.4418 27.5273 28.9801 25.4467C30.5184 23.3662 31.5318 20.9451 31.9344 18.3892C32.337 15.8332 32.1168 13.2179 31.2926 10.7652C30.4683 8.31256 29.0643 6.09504 27.1999 4.30097H27.2071Z" fill="#00A984"></path><path fill-rule="evenodd" clip-rule="evenodd" d="M13.5623 6.45438C11.9419 6.88825 10.4607 7.73229 9.2614 8.90511C8.0621 10.0779 7.18521 11.54 6.71528 13.1502C6.24535 14.7605 6.19822 16.4647 6.57845 18.0985C6.95868 19.7322 7.75344 21.2405 8.88609 22.4778C9.14817 22.3846 9.43407 22.3828 9.6973 22.4727C9.96053 22.5626 10.1856 22.7389 10.336 22.9729C10.4863 23.2069 10.5531 23.4849 10.5255 23.7617C10.4978 24.0385 10.3773 24.2978 10.1837 24.4974C9.98999 24.697 9.73447 24.8253 9.45866 24.8613C9.18285 24.8974 8.90296 24.8391 8.66449 24.6959C8.42602 24.5527 8.243 24.333 8.14517 24.0727C8.04734 23.8123 8.04046 23.5265 8.12564 23.2617C6.87701 21.9155 5.99036 20.2746 5.54869 18.4924C5.10701 16.7102 5.12476 14.8451 5.60026 13.0717C6.07576 11.2982 6.99346 9.67444 8.26747 8.35229C9.54149 7.03013 11.1301 6.05285 12.8847 5.51193C13.164 5.62185 13.5623 6.45438 13.5623 6.45438Z" fill="#00A984"></path><path d="M12.6282 19.939L9.20911 23.0144L9.90805 23.7914L13.3272 20.7161L12.6282 19.939Z" fill="#00A984"></path><path d="M19.6962 19.8402L18.9785 20.6L22.3215 23.758L23.0392 22.9982L19.6962 19.8402Z" fill="#00A984"></path></svg>